HIERARCHY
ROOT hip
{
	OFFSET 0.000000 0.000000 0.000000 
	CHANNELS 6 Xposition Yposition Zposition Xrotation Zrotation Yrotation
	JOINT abdomen
	{
		OFFSET 0.000000 3.402643 0.000000 
		CHANNELS 3 Xrotation Zrotation Yrotation
		JOINT chest
		{
			OFFSET 0.000000 8.438565 -0.680529 
			CHANNELS 3 Xrotation Zrotation Yrotation
			JOINT neck
			{
				OFFSET 0.000000 10.207942 -0.272212 
				CHANNELS 3 Xrotation Zrotation Yrotation
				JOINT head
				{
					OFFSET 0.000000 3.130431 0.000000 
					CHANNELS 3 Xrotation Zrotation Yrotation
					End Site
					{
						OFFSET 0.000000 3.130435 0.000000 
					}
				}
			}
			JOINT lCollar
			{
				OFFSET 3.470700 6.669187 -0.816635 
				CHANNELS 3 Yrotation Zrotation Xrotation
				JOINT lShldr
				{
					OFFSET 3.198488 0.000000 0.000000 
					CHANNELS 3 Zrotation Yrotation Xrotation
					JOINT lForeArm
					{
						OFFSET 10.139888 0.000000 0.000000 
						CHANNELS 3 Yrotation Zrotation Xrotation
						JOINT lHand
						{
							OFFSET 8.370511 0.000000 0.000000 
							CHANNELS 3 Zrotation Yrotation Xrotation
							End Site
							{
								OFFSET 4.083176 0.000000 0.000000 
							}
						}
					}
				}
			}
			JOINT rCollar
			{
				OFFSET -3.470700 6.669187 -0.816635 
				CHANNELS 3 Yrotation Zrotation Xrotation
				JOINT rShldr
				{
					OFFSET -3.198488 0.000000 0.000000 
					CHANNELS 3 Zrotation Yrotation Xrotation
					JOINT rForeArm
					{
						OFFSET -10.139888 0.000000 0.000000 
						CHANNELS 3 Yrotation Zrotation Xrotation
						JOINT rHand
						{
							OFFSET -8.370511 0.000000 0.000000 
							CHANNELS 3 Zrotation Yrotation Xrotation
							End Site
							{
								OFFSET -4.083176 0.000000 0.000000 
							}
						}
					}
				}
			}
		}
	}
	JOINT lThigh
	{
		OFFSET 5.308129 -1.633274 1.361059 
		CHANNELS 3 Xrotation Zrotation Yrotation
		JOINT lShin
		{
			OFFSET -2.041588 -20.007561 0.000000 
			CHANNELS 3 Xrotation Zrotation Yrotation
			JOINT lFoot
			{
				OFFSET 0.000000 -19.190928 -1.224953 
				CHANNELS 3 Xrotation Yrotation Zrotation
				End Site
				{
					OFFSET 0.000000 -2.449906 4.627600 
				}
			}
		}
	}
	JOINT rThigh
	{
		OFFSET -5.308129 -1.633274 1.361059 
		CHANNELS 3 Xrotation Zrotation Yrotation
		JOINT rShin
		{
			OFFSET 2.041588 -20.007561 0.000000 
			CHANNELS 3 Xrotation Zrotation Yrotation
			JOINT rFoot
			{
				OFFSET 0.000000 -19.190928 -1.224953 
				CHANNELS 3 Xrotation Yrotation Zrotation
				End Site
				{
					OFFSET 0.000000 -2.449906 4.627600 
				}
			}
		}
	}
}
MOTION
Frames: 6
Frame Time: 0.033333
8.129539 42.294441 70.036911 -11.787109 5.087891 -143.260849 17.841799 5.195312 -3.592866 -14.208984 -4.648438 -5.323057 -9.667968 -1.982422 -13.164400 18.378906 12.880860 -12.702900 -3.515625 5.009766 0.116335 -90.263672 -31.103518 62.568359 -52.958981 -2.402344 -15.800370 23.554688 2.519531 1.006290 10.498048 8.740234 -0.558125 68.476563 18.085938 -6.181641 77.783203 3.466797 -48.135357 -3.212891 -9.160157 0.029297 -14.353001 16.773932 4.751657 39.448608 -0.760315 -2.830260 -30.205675 14.859113 3.844884 -54.107601 -24.245913 -8.071349 58.950161 -0.537044 3.340308 -14.757698 -8.437857 2.588831 
8.133109 42.292103 70.029640 -11.787109 5.087891 -143.436630 18.027344 5.361328 -3.535156 -14.208984 -4.472656 -5.498808 -9.667969 -2.148437 -13.144531 18.378906 12.880860 -12.527120 -3.515625 4.833985 0.107422 -90.263672 -31.103518 62.568359 -52.939449 -2.451172 -16.669506 24.082031 2.509765 0.976563 10.498048 8.740234 -0.558125 68.457031 18.261719 -6.178580 77.880859 3.544922 -48.476563 -3.427734 -9.335938 0.183964 -14.160625 16.738663 4.590415 39.457569 -0.765568 -2.851888 -30.331112 15.077607 3.838384 -54.107601 -24.245916 -8.071346 58.950161 -0.537035 3.340312 -14.823670 -8.236540 2.495634 
8.127075 42.284096 70.034073 -11.787109 4.912109 -143.436661 18.027344 5.361328 -3.535156 -14.384765 -4.472656 -5.489043 -9.511719 -2.490234 -12.929688 18.203125 13.056641 -12.527090 -3.515625 4.833985 0.107422 -90.273438 -31.093754 62.739094 -53.017578 -2.519531 -17.050352 24.462891 2.968750 1.113789 10.683594 8.740234 -0.577656 68.291016 17.871094 -6.325127 78.203125 3.525390 -48.770130 -3.603516 -9.511719 0.174167 -14.356019 16.602081 4.239697 39.653206 -0.931621 -2.568594 -30.364054 15.009160 3.783624 -53.824856 -24.011875 -7.816966 58.771290 -0.536842 3.158650 -14.975802 -8.359127 2.616644 
8.139144 42.278061 70.041344 -11.953125 4.921875 -143.426895 18.017578 5.195312 -3.593750 -14.560548 -4.472656 -5.488281 -9.511719 -2.656250 -12.919922 18.203125 13.232423 -12.527061 -3.515625 4.482422 0.087127 -90.087891 -31.015623 62.832031 -53.388672 -2.519531 -17.197268 24.511721 3.535156 1.436151 10.830078 8.769532 -0.440942 68.281250 17.861326 -6.383724 78.115234 3.447265 -48.437500 -3.427734 -9.511719 0.183933 -14.238078 16.298525 3.749451 39.631638 -0.867933 -2.895250 -30.266642 15.659030 4.255236 -54.021088 -24.022236 -7.787302 58.770931 -0.536823 3.168305 -15.031732 -8.260003 2.676984 
8.150227 42.286434 70.038261 -11.953125 4.921875 -143.602676 18.203125 5.361329 -3.534243 -14.560546 -4.296875 -5.313299 -9.511719 -2.832031 -12.900392 18.203125 13.408203 -12.527031 -3.515625 4.482422 0.087127 -89.902344 -30.937502 62.568359 -53.759766 -2.519531 -17.333984 24.746094 4.091797 1.738281 10.859375 8.388672 -0.537109 68.486328 17.705078 -6.357422 78.173828 3.457031 -48.233009 -3.427734 -9.511719 0.183933 -14.537877 16.080141 3.367006 39.984684 -0.760590 -2.876399 -29.929770 16.341164 4.679854 -54.021088 -24.022236 -7.787302 58.770931 -0.536819 3.168307 -14.824714 -8.237315 2.504941 
8.184092 42.304661 70.016716 -11.787109 4.912109 -143.612442 18.378906 5.136719 -3.417094 -14.560546 -4.296875 -5.313299 -10.029297 -3.027344 -13.056643 18.564455 13.583984 -12.516766 -3.515625 4.306641 0.078125 -89.912109 -30.927734 62.744141 -53.925781 -2.460938 -17.343750 24.960938 4.541016 1.905070 10.849608 8.046876 -0.468750 68.671875 17.734375 -6.266557 78.173828 3.632812 -48.193981 -3.427734 -9.335938 0.183964 -14.906311 16.096975 2.474194 40.681065 -0.930103 -2.805355 -29.381851 16.749887 4.490260 -53.824856 -24.011877 -7.816967 58.771290 -0.536843 3.158649 -14.733444 -8.496377 2.581960 
